# xmcd
#
# Track frame offsets:
#	150
#	26585
#	48582
#	76797
#	100552
#	127252
#	178440
#	198730
#	222455
#
# Disc length: 3112 seconds
#
# Revision: 1
# Processed by: cddbd v1.4PL0 Copyright (c) Steve Scherf et al.
# Submitted via: audiograbber 1.82.01
#
DISCID=840c2609
DTITLE=Majida El Roumy - El Tawbeh
DYEAR=1900
DGENRE=
TTITLE0=El Tawbeh
TTITLE1=Layletna Min Layali El Omer
TTITLE2=Lebnan Albi
TTITLE3=Dawi Ya Amar
TTITLE4=Rafraf Wase3na
TTITLE5=Min Elna Ghayrak
TTITLE6=La Annak 3aynayi
TTITLE7=La Ma Fi
TTITLE8=Salouna
EXTD=
EXTT0=
EXTT1=
EXTT2=
EXTT3=
EXTT4=
EXTT5=
EXTT6=
EXTT7=
EXTT8=
PLAYORDER=
